# xmcd CD database file
#
# Track frame offsets:
#	150
#	11817
#	24337
#	78675
#	89725
#	103585
#	116365
#	126687
#	140252
#	153082
#	166265
#
# Disc length: 2370 seconds
#
# Revision: 3
# Processed by: cddbd v1.5.2PL0 Copyright (c) Steve Scherf et al.
# Submitted via: CDex 1.99.1
#
DISCID=8a09400b
DTITLE=Sonny Boy Williamson (II) - Bummer Road
DYEAR=1900
DGENRE=Blues
TTITLE0=She Got Next To Me
TTITLE1=Santa Claus
TTITLE2=Little Villiage
TTITLE3=Your Funeral and My Trail (alt. take)
TTITLE4=Lonesome Cabin
TTITLE5=I Can't Do Without You
TTITLE6=Temperature 110
TTITLE7=Unseen Eye
TTITLE8=Keep Your Hand Out of My Pocket
TTITLE9=Open Road
TTITLE10=This Old Life
EXTD=
EXTT0=
EXTT1=
EXTT2=
EXTT3=Previously unreleased in US bonus track\n
EXTT4=
EXTT5=
EXTT6=
EXTT7=
EXTT8=
EXTT9=
EXTT10=
PLAYORDER=
